<?xml version="1.0" encoding="utf-8"?>
<!-- Generator: Adobe Illustrator 21.0.0, SVG Export Plug-In . SVG Version: 6.00 Build 0)  -->
<svg version="1.1" id="Layer_1" xmlns="http://www.w3.org/2000/svg" xmlns:xlink="http://www.w3.org/1999/xlink" x="0px" y="0px"
	 width="95.4px" height="77px" viewBox="0 0 95.4 77" style="enable-background:new 0 0 95.4 77;" xml:space="preserve">
<style type="text/css">
	.st0{fill:#FFFFFF;}
</style>
<title>Asset 2</title>
<g id="Layer_2">
	<g id="Layer_1-2">
		<path class="st0" d="M18,77c0.4-0.9,1.1-2.5,1.9-4.1c2-4.2,2.4-6.9,0.9-8.6C16.9,59.9,0,50.3,0,24.2C0,11.7,9.8,0.3,22.8,0
			c19.6-0.5,23.5,14.3,24.7,14.4S54.1-1,72.3,0.2c16,1,20.2,12.5,21.2,14.7c1.6,3.3,3,8.7,0.7,20.1c-0.2,0.9-0.4,1.8-0.7,2.7
			C81.1,74.8,18,77,18,77z"/>
	</g>
</g>
</svg>
