<?xml version="1.0" encoding="utf-8"?>
<!-- Generator: Adobe Illustrator 17.0.0, SVG Export Plug-In . SVG Version: 6.00 Build 0)  -->
<!DOCTYPE svg PUBLIC "-//W3C//DTD SVG 1.1//EN" "http://www.w3.org/Graphics/SVG/1.1/DTD/svg11.dtd">
<svg version="1.1" id="Layer_1" xmlns="http://www.w3.org/2000/svg" xmlns:xlink="http://www.w3.org/1999/xlink" x="0px" y="0px"
	 width="530.2px" height="162.6px" viewBox="0 0 530.2 162.6" enable-background="new 0 0 530.2 162.6" xml:space="preserve">
<path fill="#FFFFFF" d="M407.9,65.8c5.6,0,10.1,1.7,13.2,5c3.2,3.3,4.8,7.8,4.8,13.2v3.3h-10.1v-2.5c0-2.7-0.7-4.9-2.1-6.4
	c-1.4-1.6-3.4-2.4-6-2.4c-2.9,0-5.1,1-6.5,2.9s-2.1,4.3-2.1,7.1c0,2.3,0.4,4.5,1.3,6.5c0.8,2,2,4.2,3.6,6.4c1,1.5,2.3,3.3,3.9,5.3
	s3.1,4.1,4.8,6.3c1.6,2.2,3.2,4.3,4.7,6.4s2.8,4,3.9,5.8c1.8,2.9,3.2,5.7,4,8.4c0.8,2.6,1.3,5.6,1.3,9.1c0,6.9-1.5,12.4-4.5,16.4
	s-7.8,6-14.2,6c-3.1,0-5.9-0.5-8.3-1.4c-2.4-1-4.5-2.2-6.1-3.9c-1.7-1.6-3-3.6-3.9-5.8s-1.4-4.6-1.4-7.2v-5l10.1,2.6v2.3
	c0,2.2,0.8,4.2,2.3,5.8c1.6,1.7,3.7,2.5,6.5,2.5c3,0,5.3-1,6.7-2.9c1.5-1.9,2.2-4.6,2.2-8.1c0-2.1-0.3-4.3-1-6.6
	c-0.7-2.2-1.9-4.7-3.6-7.4c-0.9-1.4-2-2.9-3.3-4.5c-1.3-1.7-2.7-3.4-4.1-5.2c-1.4-1.8-2.8-3.7-4.2-5.5c-1.4-1.9-2.6-3.7-3.8-5.4
	c-2.7-4.3-4.6-8.1-5.5-11.4c-1-3.3-1.5-6.5-1.5-9.5c0-6.2,1.7-11.1,5.2-14.7C397.5,67.6,402.1,65.8,407.9,65.8"/>
<polygon fill="#FFFFFF" points="447.4,67.5 461.9,141.6 477.3,67.5 488.3,67.5 488.3,160.9 478.5,160.9 478.5,100.7 467,160.9 
	456.9,160.9 445.2,99.8 445.2,160.9 435.4,160.9 435.4,67.5 "/>
<polygon fill="#FFFFFF" points="530.2,67.5 530.2,78.1 510.2,78.1 510.2,107.5 524.3,107.5 524.3,118.1 510.2,118.1 510.2,150.3 
	530.2,150.3 530.2,160.9 499.3,160.9 499.3,67.5 "/>
<path fill="#F28220" d="M201.8,50c0.3-0.6,0.7-1.6,1.2-2.6c1.3-2.7,1.6-4.5,0.6-5.6C201,38.9,190,32.7,190,15.7
	c0-8.2,6.4-15.5,14.8-15.7c12.7-0.3,15.3,9.3,16,9.3c0.8,0,4.3-10,16.1-9.2c10.4,0.7,13.1,8.1,13.8,9.5c1,2.2,1.9,5.6,0.4,13
	c-0.1,0.6-0.3,1.2-0.5,1.8C242.8,48.6,201.8,50,201.8,50"/>
<path fill="#F2851F" d="M58.4,71.3c5.9,5.3,9.3,12.6,10.1,21.9h-3.2c-0.8-8.5-3.9-15-9-19.7c-5.3-4.8-12.5-7-21.6-7
	c-8.8,0-15.8,1.6-21,5.1C8,75.2,5.2,80.4,5.2,87.3c0,6.1,3.5,11,10.5,14.6c3.2,1.6,9.7,3.7,19.6,6.4c11.6,2.9,19.7,5.8,24.2,8.8
	c7.5,4.5,11.3,11.2,11.3,19.7c0,7.8-3.5,14.1-10.2,18.7C54.2,159.8,46,162,36,162c-10.4,0-18.6-2.7-24.7-8
	C4.5,148.1,0.8,139.8,0,128.7h3.1c0.8,10,4.3,17.5,10.4,22.9c5.6,4.8,13,7.2,22.4,7.2c9.3,0,16.9-2,22.9-6c5.9-4,8.9-9.4,8.9-16.1
	c0-7.4-3.5-13.3-10.2-17.3c-4.1-2.5-11.7-5.2-22.6-8c-11-2.9-18.4-5.5-21.8-7.3C5.6,100.2,2,94.4,2,87.3C2,79.2,5.3,73,12.1,68.9
	c5.9-3.7,13.3-5.6,22.6-5.6C44.6,63.3,52.5,66,58.4,71.3"/>
<polygon fill="#F2851F" points="92.8,65.2 133.3,156.7 133.5,156.7 173.9,65.2 179.7,65.2 179.7,160.1 176.5,160.1 176.5,68 
	176.1,68 135.4,160.1 131.3,160.1 90.6,68 90.2,68 90.2,160.1 87,160.1 87,65.2 "/>
<rect x="202.5" y="64.9" fill="#F2851F" width="3.2" height="95.2"/>
<polygon fill="#F2851F" points="231.5,65.2 231.5,156.9 292.4,156.9 292.4,160.1 228.3,160.1 228.3,65.2 "/>
<polygon fill="#F2851F" points="372,65.2 372,68.4 309.8,68.4 309.8,109.1 368.9,109.1 368.9,112.3 309.8,112.3 309.8,156.9 
	374.2,156.9 374.2,160.1 306.6,160.1 306.6,65.2 "/>
</svg>
